<svg width="292" height="37" viewBox="0 0 292 37" fill="none" xmlns="http://www.w3.org/2000/svg">
<path d="M13.0471 28.231C11.6054 28.231 10.1397 27.5773 8.64998 26.27L8.36165 27.75H3.17166L8.07332 4.218L13.4075 3.478L9.08248 24.235C9.75526 24.7283 10.4401 24.975 11.1369 24.975C12.5064 24.975 13.7078 24.161 14.741 22.533C15.7982 20.905 16.6152 18.833 17.1918 16.317C17.7685 13.801 18.0568 11.2603 18.0568 8.695C18.0568 6.27767 17.5883 4.514 16.6512 3.404C15.7382 2.26933 14.4527 1.702 12.7948 1.702C10.9927 1.702 9.37082 2.072 7.92915 2.812C6.51152 3.52733 5.39423 4.56333 4.57728 5.92C3.76034 7.27667 3.35187 8.86767 3.35187 10.693C3.35187 11.6057 3.43597 12.247 3.60416 12.617C3.77235 12.9623 3.85645 13.1597 3.85645 13.209C2.60701 13.209 1.6459 12.9377 0.973123 12.395C0.324374 11.8523 0 10.9767 0 9.768C0 8.09067 0.612707 6.49967 1.83812 4.995C3.06354 3.49033 4.69742 2.28167 6.73978 1.369C8.80616 0.456333 11.0287 0 13.4075 0C16.6993 0 19.1261 0.999 20.6879 2.997C22.2497 4.995 23.0306 7.548 23.0306 10.656C23.0306 13.468 22.562 16.243 21.625 18.981C20.7119 21.6943 19.4865 23.9143 17.9487 25.641C16.4109 27.3677 14.7771 28.231 13.0471 28.231Z" fill="white"/>
<path d="M29.7014 7.252C28.9085 7.252 28.2357 6.96833 27.683 6.401C27.1304 5.83367 26.8541 5.143 26.8541 4.329C26.8541 3.515 27.1304 2.82433 27.683 2.257C28.2357 1.665 28.9085 1.369 29.7014 1.369C30.4943 1.369 31.1671 1.665 31.7197 2.257C32.2964 2.82433 32.5847 3.515 32.5847 4.329C32.5847 5.143 32.2964 5.83367 31.7197 6.401C31.1671 6.96833 30.4943 7.252 29.7014 7.252ZM27.2505 27.972C26.0972 27.972 25.1601 27.602 24.4393 26.862C23.7425 26.122 23.3941 25.012 23.3941 23.532C23.3941 22.9153 23.4902 22.1137 23.6824 21.127L26.1333 9.25H31.3232L28.7282 21.83C28.6321 22.2 28.5841 22.5947 28.5841 23.014C28.5841 23.5073 28.6922 23.865 28.9085 24.087C29.1487 24.2843 29.5332 24.383 30.0618 24.383C30.7586 24.383 31.4073 24.087 32.008 23.495C32.6087 22.8783 33.0412 22.089 33.3055 21.127H34.8193C33.9303 23.791 32.7889 25.604 31.3953 26.566C30.0017 27.5033 28.6201 27.972 27.2505 27.972Z" fill="white"/>
<path d="M39.6705 37C38.5172 37 37.5561 36.6917 36.7872 36.075C36.0183 35.4583 35.6339 34.5703 35.6339 33.411C35.6339 32.005 36.1865 30.8703 37.2918 30.007C38.3971 29.1683 39.8027 28.4653 41.5087 27.898L41.9412 25.937C40.7157 27.2937 39.2741 27.972 37.6162 27.972C36.2466 27.972 35.1053 27.491 34.1922 26.529C33.2792 25.567 32.8226 24.0623 32.8226 22.015C32.8226 20.1897 33.171 18.278 33.8678 16.28C34.5887 14.2573 35.6459 12.5553 37.0395 11.174C38.4571 9.768 40.1391 9.065 42.0853 9.065C43.0705 9.065 43.8033 9.23767 44.2839 9.583C44.7644 9.92833 45.0047 10.3847 45.0047 10.952V11.174L45.4011 9.25H50.5911L47.023 26.418C48.1764 26.0233 49.1014 25.4313 49.7982 24.642C50.495 23.8527 51.0837 22.681 51.5643 21.127H53.078C52.4293 23.3223 51.5522 24.938 50.447 25.974C49.3417 26.9853 48.0923 27.676 46.6986 28.046L46.158 30.71C45.6775 33.1027 44.8485 34.743 43.6712 35.631C42.4938 36.5437 41.1603 37 39.6705 37ZM39.9589 24.383C40.5115 24.383 41.0762 24.124 41.6528 23.606C42.2295 23.088 42.6259 22.385 42.8422 21.497L44.6803 12.728C44.6803 12.432 44.5602 12.136 44.3199 11.84C44.0796 11.5193 43.7072 11.359 43.2026 11.359C42.2415 11.359 41.3765 11.9387 40.6076 13.098C39.8387 14.2327 39.238 15.614 38.8055 17.242C38.373 18.8453 38.1568 20.2637 38.1568 21.497C38.1568 22.7303 38.325 23.5197 38.6614 23.865C39.0218 24.2103 39.4543 24.383 39.9589 24.383ZM38.8416 34.114C39.25 34.114 39.6465 33.8303 40.031 33.263C40.4154 32.6957 40.7157 31.8817 40.932 30.821L41.1482 29.748C38.7935 30.636 37.6162 31.6843 37.6162 32.893C37.6162 33.2137 37.7243 33.4973 37.9405 33.744C38.1568 33.9907 38.4571 34.114 38.8416 34.114Z" fill="white"/>
<path d="M57.5773 7.252C56.7844 7.252 56.1116 6.96833 55.559 6.401C55.0063 5.83367 54.73 5.143 54.73 4.329C54.73 3.515 55.0063 2.82433 55.559 2.257C56.1116 1.665 56.7844 1.369 57.5773 1.369C58.3702 1.369 59.043 1.665 59.5956 2.257C60.1723 2.82433 60.4606 3.515 60.4606 4.329C60.4606 5.143 60.1723 5.83367 59.5956 6.401C59.043 6.96833 58.3702 7.252 57.5773 7.252ZM55.1265 27.972C53.9731 27.972 53.0361 27.602 52.3152 26.862C51.6184 26.122 51.27 25.012 51.27 23.532C51.27 22.9153 51.3661 22.1137 51.5583 21.127L54.0092 9.25H59.1992L56.6042 21.83C56.5081 22.2 56.46 22.5947 56.46 23.014C56.46 23.5073 56.5681 23.865 56.7844 24.087C57.0247 24.2843 57.4091 24.383 57.9377 24.383C58.6345 24.383 59.2833 24.087 59.884 23.495C60.4847 22.8783 60.9171 22.089 61.1815 21.127H62.6952C61.8062 23.791 60.6649 25.604 59.2713 26.566C57.8776 27.5033 56.496 27.972 55.1265 27.972Z" fill="white"/>
<path d="M64.7352 27.972C63.5819 27.972 62.6448 27.602 61.924 26.862C61.2272 26.122 60.8788 25.012 60.8788 23.532C60.8788 22.9153 60.9749 22.1137 61.1671 21.127L63.3296 10.73H62.1402L62.4285 9.25H63.6179L64.6992 4.144L70.0333 3.404L68.8079 9.25H70.9704L70.6821 10.73H68.5196L66.2129 21.83C66.1168 22.2 66.0687 22.5947 66.0687 23.014C66.0687 23.5073 66.1769 23.865 66.3931 24.087C66.6334 24.2843 67.0178 24.383 67.5465 24.383C68.2433 24.383 68.892 24.087 69.4927 23.495C70.0934 22.8783 70.5259 22.089 70.7902 21.127H72.3039C71.4149 23.791 70.2736 25.604 68.88 26.566C67.4864 27.5033 66.1048 27.972 64.7352 27.972Z" fill="white"/>
<path d="M75.1008 27.972C73.7313 27.972 72.5899 27.491 71.6769 26.529C70.7638 25.567 70.3073 24.0623 70.3073 22.015C70.3073 20.1897 70.6557 18.278 71.3525 16.28C72.0733 14.2573 73.1306 12.5553 74.5242 11.174C75.9418 9.768 77.6237 9.065 79.57 9.065C80.5551 9.065 81.288 9.23767 81.7685 9.583C82.2491 9.92833 82.4894 10.3847 82.4894 10.952V11.211L82.8858 9.25H88.0758L85.4808 21.83C85.3847 22.2 85.3366 22.5947 85.3366 23.014C85.3366 24.0747 85.8292 24.605 86.8143 24.605C87.4871 24.605 88.0638 24.2843 88.5443 23.643C89.0489 23.0017 89.4454 22.163 89.7337 21.127H91.2475C90.3584 23.791 89.2532 25.604 87.9316 26.566C86.6341 27.5033 85.3246 27.972 84.0031 27.972C82.9939 27.972 82.177 27.6883 81.5523 27.121C80.9516 26.529 80.5912 25.678 80.471 24.568C79.7742 25.5793 78.9933 26.4057 78.1283 27.047C77.2874 27.6637 76.2782 27.972 75.1008 27.972ZM77.4435 24.383C78.0442 24.383 78.6329 24.0993 79.2096 23.532C79.8103 22.94 80.2187 22.1383 80.435 21.127L82.165 12.765C82.165 12.4443 82.0448 12.136 81.8046 11.84C81.5643 11.5193 81.1919 11.359 80.6873 11.359C79.7262 11.359 78.8612 11.9387 78.0923 13.098C77.3234 14.2327 76.7227 15.614 76.2902 17.242C75.8577 18.8453 75.6415 20.2637 75.6415 21.497C75.6415 22.7303 75.8096 23.5197 76.146 23.865C76.5065 24.2103 76.939 24.383 77.4435 24.383Z" fill="white"/>
<path d="M93.243 27.972C92.0897 27.972 91.1526 27.602 90.4317 26.862C89.7349 26.0973 89.3865 24.9627 89.3865 23.458C89.3865 22.8413 89.4826 22.0397 89.6749 21.053L93.5313 2.516L98.8655 1.776L94.7207 21.756C94.6246 22.126 94.5765 22.4837 94.5765 22.829C94.5765 23.8157 95.0691 24.309 96.0542 24.309C96.4867 24.309 96.8712 24.235 97.2076 24.087C97.1114 25.3203 96.679 26.2823 95.9101 26.973C95.1652 27.639 94.2762 27.972 93.243 27.972Z" fill="white"/>
<path d="M113.312 4.218L118.646 3.478L116.087 15.836C117.24 15.7373 118.298 15.2193 119.259 14.282C120.244 13.3447 121.013 12.1853 121.565 10.804C122.118 9.42267 122.394 8.066 122.394 6.734C122.394 5.254 122.022 4.04533 121.277 3.108C120.532 2.17067 119.415 1.702 117.925 1.702C114.994 1.702 112.699 2.49133 111.041 4.07C109.407 5.64867 108.591 7.85633 108.591 10.693C108.591 11.6057 108.675 12.247 108.843 12.617C109.011 12.9623 109.095 13.1597 109.095 13.209C107.798 13.209 106.824 12.9377 106.176 12.395C105.551 11.8277 105.239 10.9027 105.239 9.62C105.239 8.04133 105.863 6.512 107.113 5.032C108.386 3.52733 110.008 2.31867 111.978 1.406C113.949 0.468667 115.919 0 117.889 0C119.787 0 121.373 0.333 122.647 0.999C123.92 1.665 124.857 2.553 125.458 3.663C126.083 4.74833 126.395 5.957 126.395 7.289C126.395 8.89233 125.963 10.4587 125.098 11.988C124.257 13.5173 123.043 14.7753 121.457 15.762C119.872 16.724 118.045 17.205 115.979 17.205H115.799L113.6 27.75H108.41L113.312 4.218Z" fill="white"/>
<path d="M138.694 27.972C137.228 27.972 136.147 27.5773 135.45 26.788C134.777 25.974 134.441 24.975 134.441 23.791C134.441 23.273 134.501 22.6933 134.621 22.052C134.741 21.386 134.862 20.7447 134.982 20.128C135.126 19.5113 135.222 19.1167 135.27 18.944C135.462 18.0807 135.642 17.2297 135.811 16.391C135.979 15.5523 136.063 14.874 136.063 14.356C136.063 13.098 135.63 12.469 134.765 12.469C134.141 12.469 133.588 12.7897 133.108 13.431C132.627 14.0477 132.243 14.8617 131.954 15.873L129.503 27.75H124.313L129.539 2.59L134.874 1.85L132.927 11.174C134.129 9.79267 135.534 9.102 137.144 9.102C138.37 9.102 139.343 9.44733 140.064 10.138C140.784 10.8287 141.145 11.877 141.145 13.283C141.145 13.9983 141.061 14.8 140.893 15.688C140.724 16.5513 140.484 17.612 140.172 18.87C139.979 19.6347 139.799 20.387 139.631 21.127C139.487 21.8423 139.415 22.4097 139.415 22.829C139.415 23.3223 139.523 23.7047 139.739 23.976C139.955 24.2473 140.328 24.383 140.856 24.383C141.577 24.383 142.154 24.124 142.586 23.606C143.019 23.0633 143.451 22.237 143.884 21.127H145.398C144.509 23.8403 143.475 25.6657 142.298 26.603C141.145 27.5157 139.943 27.972 138.694 27.972Z" fill="white"/>
<path d="M149.142 27.898C147.364 27.898 145.958 27.4293 144.925 26.492C143.892 25.5547 143.375 24.0747 143.375 22.052C143.375 20.3747 143.712 18.5123 144.384 16.465C145.057 14.4177 146.138 12.654 147.628 11.174C149.118 9.66933 150.992 8.917 153.251 8.917C156.326 8.917 157.864 10.8903 157.864 14.837V14.874C157.936 14.8987 158.068 14.911 158.26 14.911C159.053 14.911 159.966 14.7013 161 14.282C162.033 13.838 162.97 13.3077 163.811 12.691L164.135 13.69C163.438 14.4547 162.525 15.1083 161.396 15.651C160.291 16.169 159.077 16.539 157.756 16.761C157.564 19.0057 157.071 20.9667 156.278 22.644C155.485 24.3213 154.464 25.6163 153.215 26.529C151.965 27.4417 150.608 27.898 149.142 27.898ZM150.583 24.568C151.16 24.568 151.737 24.235 152.313 23.569C152.89 22.8783 153.395 21.9533 153.827 20.794C154.26 19.61 154.572 18.3027 154.764 16.872C154.116 16.724 153.791 16.206 153.791 15.318C153.791 14.3067 154.164 13.6407 154.908 13.32C154.86 12.506 154.74 11.951 154.548 11.655C154.356 11.3343 154.019 11.174 153.539 11.174C152.746 11.174 151.977 11.766 151.232 12.95C150.487 14.134 149.887 15.5523 149.43 17.205C148.974 18.8577 148.745 20.313 148.745 21.571C148.745 22.755 148.878 23.5567 149.142 23.976C149.406 24.3707 149.887 24.568 150.583 24.568Z" fill="white"/>
<path d="M163.286 27.972C162.133 27.972 161.196 27.602 160.475 26.862C159.778 26.122 159.43 25.012 159.43 23.532C159.43 22.9153 159.526 22.1137 159.718 21.127L161.881 10.73H160.691L160.98 9.25H162.169L163.25 4.144L168.585 3.404L167.359 9.25H169.522L169.233 10.73H167.071L164.764 21.83C164.668 22.2 164.62 22.5947 164.62 23.014C164.62 23.5073 164.728 23.865 164.944 24.087C165.185 24.2843 165.569 24.383 166.098 24.383C166.794 24.383 167.443 24.087 168.044 23.495C168.645 22.8783 169.077 22.089 169.341 21.127H170.855C169.966 23.791 168.825 25.604 167.431 26.566C166.038 27.5033 164.656 27.972 163.286 27.972Z" fill="white"/>
<path d="M174.589 27.898C172.811 27.898 171.405 27.4293 170.372 26.492C169.339 25.5547 168.822 24.0747 168.822 22.052C168.822 20.35 169.147 18.4877 169.796 16.465C170.444 14.4177 171.502 12.654 172.967 11.174C174.433 9.66933 176.307 8.917 178.59 8.917C181.425 8.917 182.951 10.582 183.167 13.912C183.696 13.7887 184.164 13.4927 184.573 13.024C184.981 12.5307 185.366 11.9757 185.726 11.359H186.879C186.231 12.691 185.654 13.7393 185.149 14.504C184.645 15.244 183.984 15.8483 183.167 16.317C183.023 18.6357 182.554 20.6707 181.761 22.422C180.993 24.1733 179.983 25.53 178.734 26.492C177.484 27.4293 176.103 27.898 174.589 27.898ZM176.031 24.568C176.92 24.568 177.749 23.828 178.518 22.348C179.287 20.868 179.815 19.0427 180.104 16.872C179.527 16.65 179.239 16.095 179.239 15.207C179.239 14.245 179.575 13.6037 180.248 13.283C180.2 12.4937 180.067 11.951 179.851 11.655C179.659 11.3343 179.335 11.174 178.878 11.174C178.085 11.174 177.328 11.766 176.607 12.95C175.887 14.1093 175.298 15.5277 174.841 17.205C174.409 18.8577 174.193 20.313 174.193 21.571C174.193 22.755 174.325 23.5567 174.589 23.976C174.853 24.3707 175.334 24.568 176.031 24.568Z" fill="white"/>
<path d="M203.642 2.479C201.936 3.145 200.615 4.181 199.678 5.587C198.741 6.96833 198.272 8.67033 198.272 10.693C198.272 11.6057 198.356 12.247 198.524 12.617C198.693 12.9623 198.777 13.1597 198.777 13.209C197.479 13.209 196.506 12.9377 195.857 12.395C195.233 11.8277 194.92 10.9027 194.92 9.62C194.92 8.04133 195.545 6.512 196.794 5.032C198.068 3.52733 199.69 2.31867 201.66 1.406C203.63 0.468667 205.601 0 207.571 0C207.907 0 208.388 0.0246671 209.013 0.0740012L209.337 22.829L216.906 0.185H219.429L209.409 27.75H204.219L203.642 2.479Z" fill="white"/>
<path d="M222.897 7.252C222.104 7.252 221.431 6.96833 220.879 6.401C220.326 5.83367 220.05 5.143 220.05 4.329C220.05 3.515 220.326 2.82433 220.879 2.257C221.431 1.665 222.104 1.369 222.897 1.369C223.69 1.369 224.363 1.665 224.915 2.257C225.492 2.82433 225.78 3.515 225.78 4.329C225.78 5.143 225.492 5.83367 224.915 6.401C224.363 6.96833 223.69 7.252 222.897 7.252ZM220.446 27.972C219.293 27.972 218.356 27.602 217.635 26.862C216.938 26.122 216.59 25.012 216.59 23.532C216.59 22.9153 216.686 22.1137 216.878 21.127L219.329 9.25H224.519L221.924 21.83C221.828 22.2 221.78 22.5947 221.78 23.014C221.78 23.5073 221.888 23.865 222.104 24.087C222.344 24.2843 222.729 24.383 223.257 24.383C223.954 24.383 224.603 24.087 225.204 23.495C225.804 22.8783 226.237 22.089 226.501 21.127H228.015C227.126 23.791 225.985 25.604 224.591 26.566C223.197 27.5033 221.816 27.972 220.446 27.972Z" fill="white"/>
<path d="M231.641 27.972C229.863 27.972 228.481 27.5033 227.496 26.566C226.511 25.604 226.018 24.1117 226.018 22.089C226.018 20.387 226.343 18.5123 226.991 16.465C227.64 14.4177 228.697 12.654 230.163 11.174C231.629 9.66933 233.491 8.917 235.749 8.917C238.393 8.917 239.714 10.101 239.714 12.469C239.714 13.8503 239.33 15.1207 238.561 16.28C237.792 17.4393 236.771 18.3767 235.497 19.092C234.224 19.7827 232.866 20.1773 231.424 20.276C231.376 21.016 231.352 21.5093 231.352 21.756C231.352 22.9647 231.557 23.791 231.965 24.235C232.374 24.6543 233.034 24.864 233.947 24.864C235.245 24.864 236.35 24.5557 237.263 23.939C238.2 23.3223 239.222 22.385 240.327 21.127H241.552C238.885 25.6903 235.581 27.972 231.641 27.972ZM231.713 18.5C232.602 18.4507 233.443 18.13 234.236 17.538C235.053 16.946 235.701 16.1937 236.182 15.281C236.687 14.3683 236.939 13.4063 236.939 12.395C236.939 11.3837 236.639 10.878 236.038 10.878C235.173 10.878 234.32 11.655 233.479 13.209C232.662 14.763 232.073 16.5267 231.713 18.5Z" fill="white"/>
<path d="M243.887 27.972C242.734 27.972 241.797 27.602 241.076 26.862C240.379 26.122 240.031 25.012 240.031 23.532C240.031 22.9153 240.127 22.1137 240.319 21.127L242.77 9.25H247.96L245.365 21.83C245.293 22.126 245.257 22.4343 245.257 22.755C245.257 23.8403 245.617 24.383 246.338 24.383C247.011 24.383 247.588 24.0993 248.068 23.532C248.549 22.94 248.933 22.1383 249.221 21.127L251.672 9.25H256.862L254.267 21.83C254.147 22.4467 254.087 22.8907 254.087 23.162C254.087 23.976 254.496 24.383 255.312 24.383C256.418 24.383 257.439 23.6677 258.376 22.237C259.337 20.8063 260.106 19.1043 260.683 17.131C261.259 15.1577 261.548 13.4557 261.548 12.025C261.5 12.1483 261.343 12.247 261.079 12.321C260.815 12.3703 260.587 12.395 260.394 12.395C259.986 12.395 259.661 12.1977 259.421 11.803C259.205 11.4083 259.097 10.9767 259.097 10.508C259.097 9.916 259.277 9.435 259.637 9.065C260.022 8.695 260.587 8.51 261.331 8.51C262.124 8.51 262.701 8.81833 263.061 9.435C263.422 10.027 263.602 10.7917 263.602 11.729C263.602 13.949 263.23 16.3293 262.485 18.87C261.74 21.386 260.599 23.532 259.061 25.308C257.523 27.084 255.613 27.972 253.33 27.972C252.153 27.972 251.192 27.713 250.447 27.195C249.702 26.677 249.221 25.9 249.005 24.864C247.66 26.936 245.954 27.972 243.887 27.972Z" fill="white"/>
<path d="M269.301 27.972C267.523 27.972 266.142 27.5033 265.157 26.566C264.171 25.604 263.679 24.1117 263.679 22.089C263.679 20.387 264.003 18.5123 264.652 16.465C265.301 14.4177 266.358 12.654 267.824 11.174C269.289 9.66933 271.152 8.917 273.41 8.917C276.053 8.917 277.375 10.101 277.375 12.469C277.375 13.8503 276.99 15.1207 276.221 16.28C275.452 17.4393 274.431 18.3767 273.158 19.092C271.884 19.7827 270.527 20.1773 269.085 20.276C269.037 21.016 269.013 21.5093 269.013 21.756C269.013 22.9647 269.217 23.791 269.626 24.235C270.034 24.6543 270.695 24.864 271.608 24.864C272.906 24.864 274.011 24.5557 274.924 23.939C275.861 23.3223 276.882 22.385 277.987 21.127H279.213C276.546 25.6903 273.242 27.972 269.301 27.972ZM269.373 18.5C270.263 18.4507 271.103 18.13 271.896 17.538C272.713 16.946 273.362 16.1937 273.843 15.281C274.347 14.3683 274.6 13.4063 274.6 12.395C274.6 11.3837 274.299 10.878 273.698 10.878C272.833 10.878 271.98 11.655 271.14 13.209C270.323 14.763 269.734 16.5267 269.373 18.5Z" fill="white"/>
<path d="M280.431 9.25H285.621L285.152 11.544C285.969 10.804 286.702 10.2367 287.351 9.842C288.023 9.44733 288.744 9.25 289.513 9.25C290.282 9.25 290.883 9.52133 291.315 10.064C291.772 10.6067 292 11.2603 292 12.025C292 12.7403 291.772 13.3693 291.315 13.912C290.859 14.4547 290.222 14.726 289.405 14.726C288.876 14.726 288.516 14.6027 288.324 14.356C288.156 14.0847 288.023 13.7023 287.927 13.209C287.855 12.8883 287.783 12.654 287.711 12.506C287.639 12.358 287.507 12.284 287.315 12.284C286.81 12.284 286.378 12.395 286.017 12.617C285.681 12.8143 285.236 13.172 284.684 13.69L281.8 27.75H276.61L280.431 9.25Z" fill="white"/>
</svg>
